<svg xmlns="http://www.w3.org/2000/svg" xmlns:xlink="http://www.w3.org/1999/xlink" width="180" height="29" viewBox="0 0 180 29">
    <defs>
        <path id="lhwhmxmbga" d="M0 0H180V28.269H0z" />
    </defs>
    <g fill="none" fill-rule="evenodd">
        <g>
            <g transform="translate(-870 -66) translate(870 66)">
                <mask id="ytavmqf4wb" fill="#fff">
                    <use xlink:href="#lhwhmxmbga" />
                </mask>
                <g fill="#010203" fill-rule="nonzero" mask="url(#ytavmqf4wb)">
                    <path d="M157.874 17.546h7.637l7.59 10.955H180l-8.184-11.197c3.91-.597 7.493-3.712 7.493-7.973 0-4.15-2.924-8.219-9.49-8.219h-17.684v27.389h5.739V17.546zm.018-12.015h10.77c2.787 0 4.927 1.43 4.927 3.801 0 2.371-2.139 3.79-4.927 3.79h-10.77v-7.59zM82.149 17.546h7.642l7.588 10.955h6.944l-8.227-11.197c3.907-.597 7.492-3.712 7.492-7.973 0-4.15-2.924-8.219-9.492-8.219h-17.68v27.389h5.735l-.002-10.955zm.021-12.015h10.766c2.787 0 4.93 1.43 4.93 3.801 0 2.371-2.142 3.79-4.93 3.79H82.17v-7.59zm-21.665 22.97l-3.34-7.223h-13.24l-3.203 7.224h-5.857l12.83-27.39h5.94l13.36 27.389h-6.49zM55.234 16.99L50.407 6.47l-4.628 10.52h9.455zM27.033 3.59C23.17 1.606 18.908.533 14.569.451 7.287.452.603 3.172.503 9.397c-.101 6.571 6.438 7.183 12.357 7.31 4.879.104 9.334.22 9.281 3.502-.03 1.919-2.389 4.054-9.219 4.054-3.76-.08-7.437-1.126-10.676-3.037L0 25.403c.526.352 4.92 3.318 13.224 3.318 9.613 0 14.478-3.953 14.554-8.843.048-3.087-1.194-4.98-2.917-6.172-2.673-1.849-6.882-1.976-10.645-2.01-4.519-.043-8.415-.223-8.376-2.717.034-2.298 2.577-4.158 8.434-4.158 3.706.014 7.343 1.003 10.546 2.869l2.213-4.102zM136.769 28.5l-3.34-7.224h-13.243l-3.202 7.224h-5.857l12.827-27.389h5.942l13.363 27.389h-6.49zm-5.274-11.513L126.667 6.47l-4.627 10.52 9.455-.002z" transform="translate(0 -.452)" />
                </g>
            </g>
        </g>
    </g>
</svg>